<?xml version="1.0" encoding="UTF-8"?>
<!DOCTYPE svg PUBLIC "-//W3C//DTD SVG 1.1//EN" "http://www.w3.org/Graphics/SVG/1.1/DTD/svg11.dtd">
<svg xmlns="http://www.w3.org/2000/svg" version="1.1" width="256px" height="161px" style="shape-rendering:geometricPrecision; text-rendering:geometricPrecision; image-rendering:optimizeQuality; fill-rule:evenodd; clip-rule:evenodd" xmlns:xlink="http://www.w3.org/1999/xlink">
<g><path style="opacity:0.989" fill="#0369aa" d="M 17.5,-0.5 C 90.5,-0.5 163.5,-0.5 236.5,-0.5C 244.942,1.10272 250.442,6.10272 253,14.5C 253.667,57.8333 253.667,101.167 253,144.5C 251.264,151.237 247.097,155.737 240.5,158C 165.167,158.667 89.8333,158.667 14.5,158C 5.98071,154.804 1.48071,148.637 1,139.5C 0.333333,99.1667 0.333333,58.8333 1,18.5C 2.45999,8.54679 7.95999,2.21346 17.5,-0.5 Z" aria-label="card type is Diners Club"/></g>
<g><path style="opacity:1" fill="#f9fbfd" d="M 110.5,16.5 C 122.229,16.0878 133.896,16.5878 145.5,18C 165.388,24.2209 174.554,37.7209 173,58.5C 169.582,74.8122 159.749,84.9788 143.5,89C 132.167,89.6667 120.833,89.6667 109.5,89C 86.4604,80.7631 77.6271,64.5965 83,40.5C 88.1235,27.7133 97.2901,19.7133 110.5,16.5 Z"/></g>
<g><path style="opacity:1" fill="#096bab" d="M 110.5,19.5 C 130.554,17.4128 144.054,25.7462 151,44.5C 153.781,66.366 144.614,80.1993 123.5,86C 109.262,88.1283 98.0954,83.295 90,71.5C 78.91,46.9171 85.7434,29.5838 110.5,19.5 Z"/></g>
<g><path style="opacity:1" fill="#fbfcfd" d="M 109.5,33.5 C 110.66,46.3268 110.827,59.3268 110,72.5C 96.9051,64.7744 93.9051,54.1077 101,40.5C 103.441,37.5464 106.275,35.2131 109.5,33.5 Z"/></g>
<g><path style="opacity:1" fill="#bcd7e8" d="M 127.5,34.5 C 126.167,46.8333 126.167,59.1667 127.5,71.5C 127.44,72.0431 127.107,72.3764 126.5,72.5C 125.167,59.5 125.167,46.5 126.5,33.5C 127.107,33.6236 127.44,33.9569 127.5,34.5 Z"/></g>
<g><path style="opacity:1" fill="#fafcfd" d="M 127.5,34.5 C 139.333,41.8207 142.167,51.8207 136,64.5C 133.584,67.4234 130.75,69.7567 127.5,71.5C 126.167,59.1667 126.167,46.8333 127.5,34.5 Z"/></g>
<g><path style="opacity:1" fill="#f7fafc" d="M 173.5,89.5 C 175.472,98.4401 176.139,107.773 175.5,117.5C 176.675,117.281 177.675,117.614 178.5,118.5C 175.5,119.833 172.5,119.833 169.5,118.5C 170.325,117.614 171.325,117.281 172.5,117.5C 172.666,109.493 172.5,101.493 172,93.5C 171.5,93 171,92.5 170.5,92C 171.571,91.1482 172.571,90.3149 173.5,89.5 Z"/></g>
<g><path style="opacity:1" fill="#f0f6fa" d="M 200.5,89.5 C 202.28,93.7274 203.114,98.3941 203,103.5C 208.078,100.178 212.078,101.178 215,106.5C 216.023,111.952 214.19,116.119 209.5,119C 205.998,119.282 202.665,119.449 199.5,119.5C 199.13,110.093 198.13,100.926 196.5,92C 197.858,91.0656 199.192,90.2323 200.5,89.5 Z"/></g>
<g><path style="opacity:1" fill="#eaf2f8" d="M 67.5,91.5 C 68.5,91.5 69.5,91.5 70.5,91.5C 70.5,92.8333 70.5,94.1667 70.5,95.5C 67.0464,95.7332 66.0464,94.3999 67.5,91.5 Z"/></g>
<g><path style="opacity:1" fill="#ecf4f9" d="M 153.5,91.5 C 158.536,91.0616 163.369,91.7283 168,93.5C 168.667,95.5 168.667,97.5 168,99.5C 167.196,97.0558 165.696,95.2225 163.5,94C 154.583,92.2434 149.583,95.9101 148.5,105C 149.736,113.918 154.736,117.918 163.5,117C 165.359,115.442 166.859,113.609 168,111.5C 168.758,113.769 168.591,115.936 167.5,118C 151.463,122.758 143.963,116.924 145,100.5C 146.688,96.3148 149.521,93.3148 153.5,91.5 Z"/></g>
<g><path style="opacity:1" fill="#eaf2f8" d="M 36.5,91.5 C 41.8437,91.334 47.1771,91.5006 52.5,92C 64.6044,97.532 66.6044,105.532 58.5,116C 51.4886,119.43 44.1553,120.264 36.5,118.5C 37.325,117.614 38.325,117.281 39.5,117.5C 39.5,109.5 39.5,101.5 39.5,93.5C 37.8212,93.7148 36.8212,93.0481 36.5,91.5 Z"/></g>
<g><path style="opacity:1" fill="#0369aa" d="M 44.5,93.5 C 56.6689,94.4953 60.8355,100.829 57,112.5C 54.0353,116.543 50.202,117.876 45.5,116.5C 44.5025,108.862 44.1692,101.196 44.5,93.5 Z"/></g>
<g><path style="opacity:1" fill="#f1f7fa" d="M 72.5,117.5 C 70.0521,118.473 67.3854,118.806 64.5,118.5C 66.7847,113.753 67.118,108.753 65.5,103.5C 66.6685,101.783 68.3352,101.116 70.5,101.5C 69.8872,107.271 70.5539,112.604 72.5,117.5 Z"/></g>
<g><path style="opacity:1" fill="#f4f8fb" d="M 82.5,118.5 C 79.2869,118.81 76.2869,118.477 73.5,117.5C 74.5,117.5 75.5,117.5 76.5,117.5C 76.6655,113.486 76.4988,109.486 76,105.5C 74.1344,103.297 74.8011,101.964 78,101.5C 78.9454,101.905 79.6121,102.572 80,103.5C 83.1741,101.379 86.5074,101.046 90,102.5C 90.4993,107.489 90.6659,112.489 90.5,117.5C 91.675,117.281 92.675,117.614 93.5,118.5C 90.5,119.833 87.5,119.833 84.5,118.5C 85.325,117.614 86.325,117.281 87.5,117.5C 87.6655,113.486 87.4988,109.486 87,105.5C 84.7564,103.006 82.4231,103.006 80,105.5C 79.5012,109.486 79.3345,113.486 79.5,117.5C 80.791,117.263 81.791,117.596 82.5,118.5 Z"/></g>
<g><path style="opacity:1" fill="#edf4f9" d="M 97.5,101.5 C 103.686,100.042 107.019,102.375 107.5,108.5C 103.833,108.5 100.167,108.5 96.5,108.5C 96.7205,116.085 100.054,118.085 106.5,114.5C 107.594,115.868 107.26,117.035 105.5,118C 95.9709,121.147 91.8042,117.647 93,107.5C 93.8041,104.854 95.3041,102.854 97.5,101.5 Z"/></g>
<g><path style="opacity:1" fill="#ebf3f8" d="M 111.5,101.5 C 113.124,101.36 114.29,102.027 115,103.5C 116.789,101.771 118.956,101.104 121.5,101.5C 121.67,102.822 121.337,103.989 120.5,105C 118.687,104.954 117.021,105.12 115.5,105.5C 114.509,109.445 114.176,113.445 114.5,117.5C 115.978,117.238 117.311,117.571 118.5,118.5C 114.833,119.833 111.167,119.833 107.5,118.5C 108.325,117.614 109.325,117.281 110.5,117.5C 111.065,112.678 110.399,108.178 108.5,104C 109.571,103.148 110.571,102.315 111.5,101.5 Z"/></g>
<g><path style="opacity:1" fill="#ebf3f8" d="M 124.5,101.5 C 127.448,101.223 130.281,101.556 133,102.5C 133.55,106.668 132.717,107.168 130.5,104C 128.866,103.506 127.199,103.34 125.5,103.5C 125.351,104.552 125.517,105.552 126,106.5C 128.101,107.924 130.267,109.258 132.5,110.5C 135.107,113.563 134.774,116.396 131.5,119C 128.571,119.777 125.737,119.61 123,118.5C 122.727,116.899 122.227,115.399 121.5,114C 121.833,113.833 122.167,113.667 122.5,113.5C 123.592,115.596 125.259,116.929 127.5,117.5C 129.266,117.566 130.266,116.732 130.5,115C 128.119,113.054 125.619,111.221 123,109.5C 122.109,106.502 122.609,103.836 124.5,101.5 Z"/></g>
<g><path style="opacity:1" fill="#f5f9fb" d="M 177.5,101.5 C 179.5,101.5 181.5,101.5 183.5,101.5C 183.334,106.179 183.501,110.845 184,115.5C 186.005,117.8 188.172,117.8 190.5,115.5C 192.166,110.679 191.5,106.346 188.5,102.5C 190.396,101.534 192.396,101.201 194.5,101.5C 194.334,106.511 194.501,111.511 195,116.5C 195.75,117.126 196.584,117.626 197.5,118C 194.892,119.852 192.559,119.686 190.5,117.5C 187.297,120.122 184.13,120.122 181,117.5C 180.501,112.845 180.334,108.179 180.5,103.5C 178.821,103.715 177.821,103.048 177.5,101.5 Z"/></g>
<g><path style="opacity:1" fill="#2173b0" d="M 99.5,102.5 C 101.384,102.712 102.717,103.712 103.5,105.5C 101.235,106.647 98.9018,106.814 96.5,106C 97.365,104.641 98.365,103.474 99.5,102.5 Z"/></g>
<g><path style="opacity:1" fill="#116cac" d="M 204.5,103.5 C 211.497,105.443 213.33,109.776 210,116.5C 207.061,119.509 204.728,119.176 203,115.5C 201.994,111.198 202.494,107.198 204.5,103.5 Z"/></g>
<g><path style="opacity:1" fill="#b5d3e6" d="M 72.5,117.5 C 72.8333,117.5 73.1667,117.5 73.5,117.5C 76.2869,118.477 79.2869,118.81 82.5,118.5C 76.5,119.833 70.5,119.833 64.5,118.5C 67.3854,118.806 70.0521,118.473 72.5,117.5 Z"/></g>
<g><path style="opacity:1" fill="#f1f7fa" d="M 127.5,126.5 C 128.496,126.414 129.329,126.748 130,127.5C 131.343,132.364 133.177,137.031 135.5,141.5C 133.5,142.833 131.5,142.833 129.5,141.5C 130.534,139.562 129.868,138.228 127.5,137.5C 124.671,137.824 124.004,139.157 125.5,141.5C 123.833,142.833 122.167,142.833 120.5,141.5C 123.033,136.555 125.366,131.555 127.5,126.5 Z"/></g>
<g><path style="opacity:1" fill="#eef5f9" d="M 160.5,126.5 C 171.812,126.299 174.812,131.132 169.5,141C 160.059,144.544 155.559,141.377 156,131.5C 157.025,129.313 158.525,127.646 160.5,126.5 Z"/></g>
<g><path style="opacity:1" fill="#eff6fa" d="M 214.5,126.5 C 218.161,126.35 219.161,127.85 217.5,131C 213.707,131.487 212.707,129.987 214.5,126.5 Z"/></g>
<g><path style="opacity:1" fill="#f0f6fa" d="M 87.5,130.5 C 86.8333,130.5 86.1667,130.5 85.5,130.5C 84.8166,128.824 83.4832,128.157 81.5,128.5C 80.9897,133.169 82.3231,134.169 85.5,131.5C 85.5,133.5 85.5,135.5 85.5,137.5C 84.5326,136.194 83.1993,135.527 81.5,135.5C 81.5,137.167 81.5,138.833 81.5,140.5C 84.3252,140.838 86.4918,139.838 88,137.5C 88.2492,138.624 88.7492,139.624 89.5,140.5C 91.0162,135.961 90.6829,131.628 88.5,127.5C 90.1667,127.167 91.8333,126.833 93.5,126.5C 97.5665,125.696 100.233,127.196 101.5,131C 100.899,132.605 99.8993,133.938 98.5,135C 99.8514,138.195 102.185,140.028 105.5,140.5C 101.995,123.302 105.828,121.969 117,136.5C 118.223,132.795 117.39,129.795 114.5,127.5C 116.833,126.167 119.167,126.167 121.5,127.5C 119.951,132.31 118.951,137.31 118.5,142.5C 114.48,139.314 110.98,135.647 108,131.5C 107.034,135.118 107.534,138.451 109.5,141.5C 102.544,144.056 97.7106,142.056 95,135.5C 94.2214,137.807 94.7214,139.807 96.5,141.5C 89.8333,142.833 83.1667,142.833 76.5,141.5C 77.7749,137.185 77.7749,132.851 76.5,128.5C 75.8076,129.025 75.3076,129.692 75,130.5C 73.8904,128.963 72.3904,128.297 70.5,128.5C 69.9872,133.085 70.6538,137.418 72.5,141.5C 69.8333,142.833 67.1667,142.833 64.5,141.5C 66.3462,137.418 67.0128,133.085 66.5,128.5C 64.5082,128.328 62.8415,128.995 61.5,130.5C 60.8076,129.975 60.3076,129.308 60,128.5C 59.6667,128.833 59.3333,129.167 59,129.5C 58.8275,133.871 58.3275,138.204 57.5,142.5C 54.516,139.015 51.3493,135.682 48,132.5C 47.0714,135.775 47.5714,138.775 49.5,141.5C 45.1667,142.833 40.8333,142.833 36.5,141.5C 37.8333,136.833 37.8333,132.167 36.5,127.5C 40.4589,126.34 44.4589,126.173 48.5,127C 51.372,129.537 53.872,132.37 56,135.5C 56.8925,132.547 56.3925,129.881 54.5,127.5C 65.4798,126.501 76.4798,126.168 87.5,126.5C 87.5,127.833 87.5,129.167 87.5,130.5 Z"/></g>
<g><path style="opacity:1" fill="#f1f7fa" d="M 133.5,126.5 C 140.863,126.169 148.197,126.503 155.5,127.5C 154.167,132.167 154.167,136.833 155.5,141.5C 153.167,142.833 150.833,142.833 148.5,141.5C 150.683,137.372 151.016,133.039 149.5,128.5C 148.833,129.167 148.167,129.833 147.5,130.5C 146.158,128.995 144.492,128.328 142.5,128.5C 141.987,133.085 142.654,137.418 144.5,141.5C 142.167,142.833 139.833,142.833 137.5,141.5C 139.346,137.418 140.013,133.085 139.5,128.5C 137.508,128.328 135.842,128.995 134.5,130.5C 133.571,129.311 133.238,127.978 133.5,126.5 Z"/></g>
<g><path style="opacity:1" fill="#e9f1f7" d="M 171.5,126.5 C 173.604,126.201 175.604,126.534 177.5,127.5C 179.817,130.317 182.317,132.984 185,135.5C 185.892,132.547 185.392,129.881 183.5,127.5C 185.5,126.167 187.5,126.167 189.5,127.5C 187.951,132.31 186.951,137.31 186.5,142.5C 182.813,139.647 179.647,136.314 177,132.5C 176.071,135.775 176.571,138.775 178.5,141.5C 176.167,142.833 173.833,142.833 171.5,141.5C 174.057,136.505 174.057,131.505 171.5,126.5 Z"/></g>
<g><path style="opacity:1" fill="#f0f6fa" d="M 195.5,126.5 C 196.496,126.414 197.329,126.748 198,127.5C 199.598,131.461 201.098,135.461 202.5,139.5C 203.325,140.386 204.325,140.719 205.5,140.5C 206.013,135.915 205.346,131.582 203.5,127.5C 206.167,126.167 208.833,126.167 211.5,127.5C 209.654,131.582 208.987,135.915 209.5,140.5C 212.325,140.919 214.491,139.919 216,137.5C 216.72,139.112 216.554,140.612 215.5,142C 209.472,142.83 203.472,142.664 197.5,141.5C 198.996,139.157 198.329,137.824 195.5,137.5C 192.563,138.617 192.23,139.951 194.5,141.5C 192.5,142.833 190.5,142.833 188.5,141.5C 191.405,136.795 193.738,131.795 195.5,126.5 Z"/></g>
<g><path style="opacity:1" fill="#0169aa" d="M 41.5,128.5 C 42.8333,128.5 44.1667,128.5 45.5,128.5C 45.5,132.5 45.5,136.5 45.5,140.5C 44.1667,140.5 42.8333,140.5 41.5,140.5C 41.5,136.5 41.5,132.5 41.5,128.5 Z"/></g>
<g><path style="opacity:1" fill="#0c6bab" d="M 85.5,130.5 C 85.5,130.833 85.5,131.167 85.5,131.5C 82.3231,134.169 80.9897,133.169 81.5,128.5C 83.4832,128.157 84.8166,128.824 85.5,130.5 Z"/></g>
<g><path style="opacity:1" fill="#0068aa" d="M 94.5,128.5 C 97.9563,129.536 98.2896,131.203 95.5,133.5C 94.5481,131.955 94.2148,130.288 94.5,128.5 Z"/></g>
<g><path style="opacity:1" fill="#0b6bab" d="M 161.5,128.5 C 164.808,127.974 166.974,129.307 168,132.5C 169.359,138.343 167.192,140.843 161.5,140C 158.888,136.169 158.888,132.336 161.5,128.5 Z"/></g>
<g><path style="opacity:1" fill="#9ec5df" d="M 85.5,130.5 C 86.1667,130.5 86.8333,130.5 87.5,130.5C 86.9346,132.952 86.2679,135.285 85.5,137.5C 85.5,135.5 85.5,133.5 85.5,131.5C 85.5,131.167 85.5,130.833 85.5,130.5 Z"/></g>
<g><path style="opacity:1" fill="#4085ba" d="M 194.5,132.5 C 196.465,132.948 196.798,133.948 195.5,135.5C 194.614,134.675 194.281,133.675 194.5,132.5 Z"/></g>
<g><path style="opacity:1" fill="#5291c1" d="M 126.5,132.5 C 128.332,133.14 128.665,134.14 127.5,135.5C 126.614,134.675 126.281,133.675 126.5,132.5 Z"/></g>
</svg>
