<?xml version="1.0" encoding="UTF-8"?>
<!DOCTYPE svg PUBLIC "-//W3C//DTD SVG 1.1//EN" "http://www.w3.org/Graphics/SVG/1.1/DTD/svg11.dtd">
<svg xmlns="http://www.w3.org/2000/svg" version="1.1" width="512px" height="322px" style="shape-rendering:geometricPrecision; text-rendering:geometricPrecision; image-rendering:optimizeQuality; fill-rule:evenodd; clip-rule:evenodd" xmlns:xlink="http://www.w3.org/1999/xlink">
<g><path style="opacity:0.998" fill="#0e4c96" d="M 18.5,-0.5 C 176.5,-0.5 334.5,-0.5 492.5,-0.5C 496.071,1.62692 499.738,3.79359 503.5,6C 506.324,9.84638 508.99,13.6797 511.5,17.5C 511.5,112.833 511.5,208.167 511.5,303.5C 507.915,311.42 502.248,317.42 494.5,321.5C 335.167,321.5 175.833,321.5 16.5,321.5C 8.75179,317.42 3.08513,311.42 -0.5,303.5C -0.5,208.167 -0.5,112.833 -0.5,17.5C 2.00958,13.6797 4.67625,9.84638 7.5,6C 11.2622,3.79359 14.9289,1.62692 18.5,-0.5 Z" aria-label="card type is JCB"/></g>
<g><path style="opacity:1" fill="#fcfcfc" d="M 134.5,33.5 C 229.833,33.5 325.167,33.5 420.5,33.5C 420.5,102.167 420.5,170.833 420.5,239.5C 417.134,266.369 402.134,282.536 375.5,288C 280.501,288.5 185.501,288.667 90.5,288.5C 90.3333,217.166 90.5,145.833 91,74.5C 97.0193,51.6426 111.519,37.9759 134.5,33.5 Z"/></g>
<g><path style="opacity:1" fill="#688ebd" d="M 134.5,33.5 C 229.999,32.5006 325.665,32.1673 421.5,32.5C 421.833,101.669 421.499,170.669 420.5,239.5C 420.5,170.833 420.5,102.167 420.5,33.5C 325.167,33.5 229.833,33.5 134.5,33.5 Z"/></g>
<g><path style="opacity:1" fill="#0e4c96" d="M 146.5,50.5 C 152.167,50.5 157.833,50.5 163.5,50.5C 163.5,75.1667 163.5,99.8333 163.5,124.5C 162.209,124.263 161.209,124.596 160.5,125.5C 159.669,141.328 159.169,157.328 159,173.5C 156.943,179.724 152.776,183.724 146.5,185.5C 146.5,140.5 146.5,95.5 146.5,50.5 Z"/></g>
<g><path style="opacity:1" fill="#0858a3" d="M 163.5,50.5 C 168.167,50.5 172.833,50.5 177.5,50.5C 177.5,75.1667 177.5,99.8333 177.5,124.5C 172.833,124.5 168.167,124.5 163.5,124.5C 163.5,99.8333 163.5,75.1667 163.5,50.5 Z"/></g>
<g><path style="opacity:1" fill="#0a65b0" d="M 177.5,50.5 C 182.833,50.5 188.167,50.5 193.5,50.5C 193.5,117.833 193.5,185.167 193.5,252.5C 190.188,259.145 185.188,264.145 178.5,267.5C 177.956,263.327 178.623,259.494 180.5,256C 180.5,236 180.5,216 180.5,196C 178.334,193.515 175.668,193.015 172.5,194.5C 181.816,191.349 187.983,185.016 191,175.5C 191.5,158.837 191.667,142.17 191.5,125.5C 181.167,125.5 170.833,125.5 160.5,125.5C 161.209,124.596 162.209,124.263 163.5,124.5C 168.167,124.5 172.833,124.5 177.5,124.5C 177.5,99.8333 177.5,75.1667 177.5,50.5 Z"/></g>
<g><path style="opacity:1" fill="#056bb7" d="M 193.5,50.5 C 195.167,50.5 196.833,50.5 198.5,50.5C 198.5,113.167 198.5,175.833 198.5,238.5C 199.051,244.045 197.385,248.711 193.5,252.5C 193.5,185.167 193.5,117.833 193.5,50.5 Z"/></g>
<g><path style="opacity:0.996" fill="#6fa9d6" d="M 143.5,50.5 C 161.993,49.5031 180.659,49.1698 199.5,49.5C 199.832,112.669 199.499,175.669 198.5,238.5C 198.5,175.833 198.5,113.167 198.5,50.5C 196.833,50.5 195.167,50.5 193.5,50.5C 188.167,50.5 182.833,50.5 177.5,50.5C 172.833,50.5 168.167,50.5 163.5,50.5C 157.833,50.5 152.167,50.5 146.5,50.5C 145.5,50.5 144.5,50.5 143.5,50.5 Z"/></g>
<g><path style="opacity:1" fill="#a31733" d="M 245.5,50.5 C 248.833,50.5 252.167,50.5 255.5,50.5C 255.5,74.5 255.5,98.5 255.5,122.5C 252.167,122.5 248.833,122.5 245.5,122.5C 245.5,98.5 245.5,74.5 245.5,50.5 Z"/></g>
<g><path style="opacity:1" fill="#af1334" d="M 255.5,50.5 C 258.833,50.5 262.167,50.5 265.5,50.5C 265.5,74.8333 265.5,99.1667 265.5,123.5C 264.5,123.5 263.5,123.5 262.5,123.5C 260.393,122.532 258.059,122.198 255.5,122.5C 255.5,98.5 255.5,74.5 255.5,50.5 Z"/></g>
<g><path style="opacity:1" fill="#bc0f35" d="M 265.5,50.5 C 268.5,50.5 271.5,50.5 274.5,50.5C 274.5,75.1667 274.5,99.8333 274.5,124.5C 271.43,124.632 268.43,124.299 265.5,123.5C 265.5,99.1667 265.5,74.8333 265.5,50.5 Z"/></g>
<g><path style="opacity:1" fill="#c90d36" d="M 274.5,50.5 C 277.833,50.5 281.167,50.5 284.5,50.5C 285.684,75.0176 285.684,99.5176 284.5,124C 285.591,125.55 286.924,126.717 288.5,127.5C 283.811,126.497 279.145,125.497 274.5,124.5C 274.5,99.8333 274.5,75.1667 274.5,50.5 Z"/></g>
<g><path style="opacity:1" fill="#d30937" d="M 284.5,50.5 C 287.833,50.5 291.167,50.5 294.5,50.5C 294.168,118.002 294.501,185.335 295.5,252.5C 292.439,259.228 287.439,263.894 280.5,266.5C 279.173,242.931 279.173,219.264 280.5,195.5C 283.763,194.518 287.097,193.851 290.5,193.5C 290.5,188.5 290.5,183.5 290.5,178.5C 287.167,179.5 283.833,180.5 280.5,181.5C 279.504,168.01 279.171,154.344 279.5,140.5C 280.5,140.5 281.5,140.5 282.5,140.5C 285.167,141.167 287.833,141.833 290.5,142.5C 291.108,137.056 290.442,132.056 288.5,127.5C 286.924,126.717 285.591,125.55 284.5,124C 285.684,99.5176 285.684,75.0176 284.5,50.5 Z"/></g>
<g><path style="opacity:1" fill="#de0538" d="M 294.5,50.5 C 296.5,50.5 298.5,50.5 300.5,50.5C 300.667,114.501 300.5,178.501 300,242.5C 299.538,246.422 298.038,249.755 295.5,252.5C 294.501,185.335 294.168,118.002 294.5,50.5 Z"/></g>
<g><path style="opacity:1" fill="#2c9837" d="M 351.5,50.5 C 355.833,50.5 360.167,50.5 364.5,50.5C 364.5,75.1667 364.5,99.8333 364.5,124.5C 360.167,124.5 355.833,124.5 351.5,124.5C 351.5,99.8333 351.5,75.1667 351.5,50.5 Z"/></g>
<g><path style="opacity:1" fill="#39a036" d="M 364.5,50.5 C 369.167,50.5 373.833,50.5 378.5,50.5C 378.176,76.5743 378.51,102.574 379.5,128.5C 375.376,126.606 371.043,125.606 366.5,125.5C 366.158,124.662 365.492,124.328 364.5,124.5C 364.5,99.8333 364.5,75.1667 364.5,50.5 Z"/></g>
<g><path style="opacity:1" fill="#47aa35" d="M 378.5,50.5 C 382.833,50.5 387.167,50.5 391.5,50.5C 391.827,90.2392 391.494,129.906 390.5,169.5C 385.783,164.135 379.783,160.802 372.5,159.5C 384.437,156.29 389.27,148.623 387,136.5C 385,133.334 382.5,130.668 379.5,128.5C 378.51,102.574 378.176,76.5743 378.5,50.5 Z"/></g>
<g><path style="opacity:1" fill="#52b034" d="M 391.5,50.5 C 395.167,50.5 398.833,50.5 402.5,50.5C 402.667,113.834 402.5,177.168 402,240.5C 400.549,248.078 397.049,254.412 391.5,259.5C 391.823,234.759 391.49,210.092 390.5,185.5C 393.167,180.167 393.167,174.833 390.5,169.5C 391.494,129.906 391.827,90.2392 391.5,50.5 Z"/></g>
<g><path style="opacity:1" fill="#14418a" d="M 143.5,50.5 C 144.5,50.5 145.5,50.5 146.5,50.5C 146.5,95.5 146.5,140.5 146.5,185.5C 142.367,186.726 138.367,186.726 134.5,185.5C 135.833,163.677 136.5,141.51 136.5,119C 136.5,96.4898 135.833,74.3231 134.5,52.5C 137.123,50.7345 140.123,50.0679 143.5,50.5 Z"/></g>
<g><path style="opacity:1" fill="#961f34" d="M 245.5,50.5 C 245.5,74.5 245.5,98.5 245.5,122.5C 248.833,122.5 252.167,122.5 255.5,122.5C 258.059,122.198 260.393,122.532 262.5,123.5C 254.167,123.5 245.833,123.5 237.5,123.5C 235.073,122.721 235.073,121.554 237.5,120C 234.833,118.333 234.833,116.667 237.5,115C 234.833,113.333 234.833,111.667 237.5,110C 234.833,108.333 234.833,106.667 237.5,105C 234.833,103.333 234.833,101.667 237.5,100C 234.833,98.3333 234.833,96.6667 237.5,95C 234.833,93.3333 234.833,91.6667 237.5,90C 234.833,88.3333 234.833,86.6667 237.5,85C 234.833,83.3333 234.833,81.6667 237.5,80C 234.833,78.3333 234.833,76.6667 237.5,75C 234.833,73.3333 234.833,71.6667 237.5,70C 234.833,68.3333 234.833,66.6667 237.5,65C 234.833,63.3333 234.833,61.6667 237.5,60C 234.833,58.3333 234.833,56.6667 237.5,55C 235.042,53.2669 235.375,52.1002 238.5,51.5C 240.607,50.5318 242.941,50.1984 245.5,50.5 Z"/></g>
<g><path style="opacity:1" fill="#1e8e3a" d="M 351.5,50.5 C 351.5,75.1667 351.5,99.8333 351.5,124.5C 347.167,124.5 342.833,124.5 338.5,124.5C 337.858,99.9381 338.525,75.6048 340.5,51.5C 343.962,50.5184 347.629,50.185 351.5,50.5 Z"/></g>
<g><path style="opacity:1" fill="#163b83" d="M 134.5,52.5 C 135.833,74.3231 136.5,96.4898 136.5,119C 136.5,141.51 135.833,163.677 134.5,185.5C 131.572,185.435 128.905,184.768 126.5,183.5C 127.552,183.649 128.552,183.483 129.5,183C 129.452,142.57 129.452,100.737 129.5,57.5C 129.253,56.2867 128.586,55.62 127.5,55.5C 129.185,53.1824 131.519,52.1824 134.5,52.5 Z"/></g>
<g><path style="opacity:1" fill="#8b2132" d="M 238.5,51.5 C 235.375,52.1002 235.042,53.2669 237.5,55C 234.833,56.6667 234.833,58.3333 237.5,60C 234.833,61.6667 234.833,63.3333 237.5,65C 234.833,66.6667 234.833,68.3333 237.5,70C 234.833,71.6667 234.833,73.3333 237.5,75C 234.833,76.6667 234.833,78.3333 237.5,80C 234.833,81.6667 234.833,83.3333 237.5,85C 234.833,86.6667 234.833,88.3333 237.5,90C 234.833,91.6667 234.833,93.3333 237.5,95C 234.833,96.6667 234.833,98.3333 237.5,100C 234.833,101.667 234.833,103.333 237.5,105C 234.833,106.667 234.833,108.333 237.5,110C 234.833,111.667 234.833,113.333 237.5,115C 234.833,116.667 234.833,118.333 237.5,120C 235.073,121.554 235.073,122.721 237.5,123.5C 235.095,124.768 232.428,125.435 229.5,125.5C 228.5,125.5 227.5,125.5 226.5,125.5C 226.178,102.425 226.511,79.425 227.5,56.5C 230.497,53.5035 234.164,51.8369 238.5,51.5 Z"/></g>
<g><path style="opacity:1" fill="#12873d" d="M 340.5,51.5 C 338.525,75.6048 337.858,99.9381 338.5,124.5C 333.833,124.5 329.167,124.5 324.5,124.5C 325.684,103.316 325.684,82.1491 324.5,61C 325.71,59.9609 326.71,58.7942 327.5,57.5C 331.161,54.1715 335.494,52.1715 340.5,51.5 Z"/></g>
<g><path style="opacity:1" fill="#19347c" d="M 127.5,55.5 C 128.586,55.62 129.253,56.2867 129.5,57.5C 129.452,100.737 129.452,142.57 129.5,183C 128.552,183.483 127.552,183.649 126.5,183.5C 122.521,183.258 118.854,182.258 115.5,180.5C 117.199,180.66 118.866,180.494 120.5,180C 120.5,141.667 120.5,103.333 120.5,65C 120,64.5 119.5,64 119,63.5C 118.184,64.8228 117.017,65.4894 115.5,65.5C 118.619,61.0427 122.619,57.7094 127.5,55.5 Z"/></g>
<g><path style="opacity:1" fill="#0c8140" d="M 327.5,57.5 C 326.71,58.7942 325.71,59.9609 324.5,61C 325.684,82.1491 325.684,103.316 324.5,124.5C 320.5,124.5 316.5,124.5 312.5,124.5C 312.5,110.167 312.5,95.8333 312.5,81.5C 313.053,74.7222 315.553,68.7222 320,63.5C 322.106,60.8823 324.606,58.8823 327.5,57.5 Z"/></g>
<g><path style="opacity:1" fill="#7b2831" d="M 227.5,56.5 C 226.511,79.425 226.178,102.425 226.5,125.5C 227.5,125.5 228.5,125.5 229.5,125.5C 222.696,126.984 216.529,129.984 211,134.5C 210.333,115.833 210.333,97.1667 211,78.5C 213.355,68.7819 218.855,61.4486 227.5,56.5 Z"/></g>
<g><path style="opacity:1" fill="#1d2f76" d="M 115.5,180.5 C 113.323,180.414 111.323,179.747 109.5,178.5C 108.333,145.838 108.167,113.172 109,80.5C 109.919,74.8932 112.086,69.8932 115.5,65.5C 117.017,65.4894 118.184,64.8228 119,63.5C 119.5,64 120,64.5 120.5,65C 120.5,103.333 120.5,141.667 120.5,180C 118.866,180.494 117.199,180.66 115.5,180.5 Z"/></g>
<g><path style="opacity:0.996" fill="#57aa73" d="M 312.5,81.5 C 312.5,95.8333 312.5,110.167 312.5,124.5C 316.5,124.5 320.5,124.5 324.5,124.5C 329.167,124.5 333.833,124.5 338.5,124.5C 342.833,124.5 347.167,124.5 351.5,124.5C 355.833,124.5 360.167,124.5 364.5,124.5C 365.492,124.328 366.158,124.662 366.5,125.5C 348.167,125.5 329.833,125.5 311.5,125.5C 311.171,110.657 311.504,95.9905 312.5,81.5 Z"/></g>
<g><path style="opacity:1" fill="#aa1a35" d="M 259.5,135.5 C 260.598,151.716 260.598,167.882 259.5,184C 261.25,185.319 263.25,185.819 265.5,185.5C 260.934,186.797 256.267,186.797 251.5,185.5C 250.516,169.244 250.182,152.911 250.5,136.5C 253.287,135.523 256.287,135.19 259.5,135.5 Z"/></g>
<g><path style="opacity:1" fill="#b61135" d="M 259.5,135.5 C 264.122,135.156 268.455,135.823 272.5,137.5C 270.974,138.105 269.974,139.271 269.5,141C 270.219,155.43 270.552,169.93 270.5,184.5C 268.958,185.301 267.292,185.634 265.5,185.5C 263.25,185.819 261.25,185.319 259.5,184C 260.598,167.882 260.598,151.716 259.5,135.5 Z"/></g>
<g><path style="opacity:1" fill="#1f8e3b" d="M 330.5,136.5 C 338.917,136.094 347.251,136.594 355.5,138C 359.5,142.667 359.5,147.333 355.5,152C 354.255,152.791 352.922,153.291 351.5,153.5C 344.5,153.5 337.5,153.5 330.5,153.5C 330.5,147.833 330.5,142.167 330.5,136.5 Z"/></g>
<g><path style="opacity:1" fill="#991f34" d="M 250.5,136.5 C 250.182,152.911 250.516,169.244 251.5,185.5C 237.984,182.474 231.317,173.974 231.5,160C 231.423,146.916 237.756,139.083 250.5,136.5 Z"/></g>
<g><path style="opacity:1" fill="#c30f36" d="M 272.5,137.5 C 276.286,137.32 279.619,138.32 282.5,140.5C 281.5,140.5 280.5,140.5 279.5,140.5C 279.171,154.344 279.504,168.01 280.5,181.5C 277.505,183.243 274.171,184.243 270.5,184.5C 270.552,169.93 270.219,155.43 269.5,141C 269.974,139.271 270.974,138.105 272.5,137.5 Z"/></g>
<g><path style="opacity:0.996" fill="#66b27c" d="M 330.5,136.5 C 330.5,142.167 330.5,147.833 330.5,153.5C 337.5,153.5 344.5,153.5 351.5,153.5C 344.352,154.492 337.019,154.825 329.5,154.5C 329.177,148.31 329.51,142.31 330.5,136.5 Z"/></g>
<g><path style="opacity:1" fill="#1d8c3d" d="M 344.5,165.5 C 345.123,170.856 345.123,176.022 344.5,181C 345.305,182.113 345.972,183.279 346.5,184.5C 340.833,184.5 335.167,184.5 329.5,184.5C 329.5,178.167 329.5,171.833 329.5,165.5C 334.5,165.5 339.5,165.5 344.5,165.5 Z"/></g>
<g><path style="opacity:1" fill="#2a953b" d="M 344.5,165.5 C 356.647,162.822 361.814,167.488 360,179.5C 356.469,183.623 351.969,185.29 346.5,184.5C 345.972,183.279 345.305,182.113 344.5,181C 345.123,176.022 345.123,170.856 344.5,165.5 Z"/></g>
<g><path style="opacity:1" fill="#7b3238" d="M 217.5,191.5 C 216.502,217.661 216.169,243.995 216.5,270.5C 218.167,270.5 219.833,270.5 221.5,270.5C 224.5,270.5 227.5,270.5 230.5,270.5C 232.167,270.5 233.833,270.5 235.5,270.5C 238.833,270.5 242.167,270.5 245.5,270.5C 250.5,270.5 255.5,270.5 260.5,270.5C 262.833,270.5 265.167,270.5 267.5,270.5C 248.674,271.497 229.674,271.83 210.5,271.5C 210.333,243.165 210.5,214.831 211,186.5C 213.326,188.066 215.492,189.732 217.5,191.5 Z"/></g>
<g><path style="opacity:1" fill="#7a2730" d="M 217.5,191.5 C 220.257,192.512 222.924,193.512 225.5,194.5C 224.127,194.343 222.793,194.51 221.5,195C 221.853,219.961 221.853,245.127 221.5,270.5C 219.833,270.5 218.167,270.5 216.5,270.5C 216.169,243.995 216.502,217.661 217.5,191.5 Z"/></g>
<g><path style="opacity:1" fill="#45a834" d="M 390.5,185.5 C 391.49,210.092 391.823,234.759 391.5,259.5C 388.728,263.387 385.061,266.054 380.5,267.5C 379.148,243.628 377.815,219.628 376.5,195.5C 382.227,193.638 386.893,190.305 390.5,185.5 Z"/></g>
<g><path style="opacity:1" fill="#1a3078" d="M 111.5,194.5 C 115.476,195.295 119.476,195.962 123.5,196.5C 123.5,221.167 123.5,245.833 123.5,270.5C 118.833,270.5 114.167,270.5 109.5,270.5C 108.843,244.811 109.509,219.478 111.5,194.5 Z"/></g>
<g><path style="opacity:1" fill="#0a57a2" d="M 178.5,267.5 C 174.298,268.967 169.965,269.967 165.5,270.5C 164.833,270.5 164.167,270.5 163.5,270.5C 163.5,246.167 163.5,221.833 163.5,197.5C 166.254,196.054 169.254,195.054 172.5,194.5C 175.668,193.015 178.334,193.515 180.5,196C 180.5,216 180.5,236 180.5,256C 178.623,259.494 177.956,263.327 178.5,267.5 Z"/></g>
<g><path style="opacity:1" fill="#842330" d="M 225.5,194.5 C 227.403,194.796 229.07,195.463 230.5,196.5C 230.5,221.167 230.5,245.833 230.5,270.5C 227.5,270.5 224.5,270.5 221.5,270.5C 221.853,245.127 221.853,219.961 221.5,195C 222.793,194.51 224.127,194.343 225.5,194.5 Z"/></g>
<g><path style="opacity:1" fill="#8c2031" d="M 230.5,196.5 C 232.621,196.325 234.621,196.659 236.5,197.5C 236.414,198.496 236.748,199.329 237.5,200C 235.219,201.482 235.219,203.149 237.5,205C 235.219,206.482 235.219,208.149 237.5,210C 235.219,211.482 235.219,213.149 237.5,215C 235.219,216.482 235.219,218.149 237.5,220C 235.219,221.482 235.219,223.149 237.5,225C 236.833,225.667 236.167,226.333 235.5,227C 236.833,236.333 236.833,245.667 235.5,255C 237.781,256.482 237.781,258.149 235.5,260C 237.781,261.482 237.781,263.149 235.5,265C 237.547,266.6 237.547,268.433 235.5,270.5C 233.833,270.5 232.167,270.5 230.5,270.5C 230.5,245.833 230.5,221.167 230.5,196.5 Z"/></g>
<g><path style="opacity:0.996" fill="#73b78e" d="M 372.5,195.5 C 370.052,196.473 367.385,196.806 364.5,196.5C 360.5,196.5 356.5,196.5 352.5,196.5C 347.833,196.5 343.167,196.5 338.5,196.5C 334.167,196.5 329.833,196.5 325.5,196.5C 321.167,196.5 316.833,196.5 312.5,196.5C 312.5,221.167 312.5,245.833 312.5,270.5C 316.833,270.5 321.167,270.5 325.5,270.5C 329.833,270.5 334.167,270.5 338.5,270.5C 343.167,270.5 347.833,270.5 352.5,270.5C 356.5,270.5 360.5,270.5 364.5,270.5C 366.5,270.5 368.5,270.5 370.5,270.5C 351.007,271.497 331.34,271.83 311.5,271.5C 311.5,246.167 311.5,220.833 311.5,195.5C 331.833,195.5 352.167,195.5 372.5,195.5 Z"/></g>
<g><path style="opacity:1" fill="#07803e" d="M 325.5,196.5 C 325.5,221.167 325.5,245.833 325.5,270.5C 321.167,270.5 316.833,270.5 312.5,270.5C 312.5,245.833 312.5,221.167 312.5,196.5C 316.833,196.5 321.167,196.5 325.5,196.5 Z"/></g>
<g><path style="opacity:1" fill="#14883c" d="M 325.5,196.5 C 329.833,196.5 334.167,196.5 338.5,196.5C 338.5,221.167 338.5,245.833 338.5,270.5C 334.167,270.5 329.833,270.5 325.5,270.5C 325.5,245.833 325.5,221.167 325.5,196.5 Z"/></g>
<g><path style="opacity:1" fill="#209039" d="M 338.5,196.5 C 343.167,196.5 347.833,196.5 352.5,196.5C 351.167,221.167 351.167,245.833 352.5,270.5C 347.833,270.5 343.167,270.5 338.5,270.5C 338.5,245.833 338.5,221.167 338.5,196.5 Z"/></g>
<g><path style="opacity:1" fill="#39a035" d="M 372.5,195.5 C 373.833,195.5 375.167,195.5 376.5,195.5C 377.815,219.628 379.148,243.628 380.5,267.5C 377.417,269.025 374.084,270.025 370.5,270.5C 368.5,270.5 366.5,270.5 364.5,270.5C 364.5,245.833 364.5,221.167 364.5,196.5C 367.385,196.806 370.052,196.473 372.5,195.5 Z"/></g>
<g><path style="opacity:0.997" fill="#8299c0" d="M 124.5,196.5 C 134.484,197.213 144.484,197.547 154.5,197.5C 152.052,198.473 149.385,198.806 146.5,198.5C 143.167,198.5 139.833,198.5 136.5,198.5C 132.295,198.283 128.295,197.617 124.5,196.5 Z"/></g>
<g><path style="opacity:1" fill="#c10f36" d="M 280.5,195.5 C 279.173,219.264 279.173,242.931 280.5,266.5C 278.208,268.267 275.542,269.267 272.5,269.5C 270.974,268.895 269.974,267.729 269.5,266C 269.887,243.109 270.22,220.275 270.5,197.5C 273.789,196.626 277.123,195.959 280.5,195.5 Z"/></g>
<g><path style="opacity:1" fill="#2a9638" d="M 352.5,196.5 C 356.5,196.5 360.5,196.5 364.5,196.5C 364.5,221.167 364.5,245.833 364.5,270.5C 360.5,270.5 356.5,270.5 352.5,270.5C 351.167,245.833 351.167,221.167 352.5,196.5 Z"/></g>
<g><path style="opacity:1" fill="#153a82" d="M 123.5,196.5 C 123.833,196.5 124.167,196.5 124.5,196.5C 128.295,197.617 132.295,198.283 136.5,198.5C 136.5,222.5 136.5,246.5 136.5,270.5C 132.167,270.5 127.833,270.5 123.5,270.5C 123.5,245.833 123.5,221.167 123.5,196.5 Z"/></g>
<g><path style="opacity:1" fill="#12428b" d="M 136.5,198.5 C 139.833,198.5 143.167,198.5 146.5,198.5C 146.5,222.5 146.5,246.5 146.5,270.5C 143.167,270.5 139.833,270.5 136.5,270.5C 136.5,246.5 136.5,222.5 136.5,198.5 Z"/></g>
<g><path style="opacity:1" fill="#0f4a94" d="M 154.5,197.5 C 157.5,197.5 160.5,197.5 163.5,197.5C 163.5,221.833 163.5,246.167 163.5,270.5C 157.833,270.5 152.167,270.5 146.5,270.5C 146.5,246.5 146.5,222.5 146.5,198.5C 149.385,198.806 152.052,198.473 154.5,197.5 Z"/></g>
<g><path style="opacity:1" fill="#992135" d="M 236.5,197.5 C 245.833,197.5 255.167,197.5 264.5,197.5C 263.081,198.451 261.415,198.784 259.5,198.5C 254.833,198.5 250.167,198.5 245.5,198.5C 245.5,222.5 245.5,246.5 245.5,270.5C 242.167,270.5 238.833,270.5 235.5,270.5C 237.547,268.433 237.547,266.6 235.5,265C 237.781,263.149 237.781,261.482 235.5,260C 237.781,258.149 237.781,256.482 235.5,255C 236.833,245.667 236.833,236.333 235.5,227C 236.167,226.333 236.833,225.667 237.5,225C 235.219,223.149 235.219,221.482 237.5,220C 235.219,218.149 235.219,216.482 237.5,215C 235.219,213.149 235.219,211.482 237.5,210C 235.219,208.149 235.219,206.482 237.5,205C 235.219,203.149 235.219,201.482 237.5,200C 236.748,199.329 236.414,198.496 236.5,197.5 Z"/></g>
<g><path style="opacity:1" fill="#a51733" d="M 259.5,198.5 C 260.431,221.668 260.764,245.668 260.5,270.5C 255.5,270.5 250.5,270.5 245.5,270.5C 245.5,246.5 245.5,222.5 245.5,198.5C 250.167,198.5 254.833,198.5 259.5,198.5 Z"/></g>
<g><path style="opacity:1" fill="#b41234" d="M 264.5,197.5 C 266.5,197.5 268.5,197.5 270.5,197.5C 270.22,220.275 269.887,243.109 269.5,266C 269.974,267.729 270.974,268.895 272.5,269.5C 271.081,270.451 269.415,270.784 267.5,270.5C 265.167,270.5 262.833,270.5 260.5,270.5C 260.764,245.668 260.431,221.668 259.5,198.5C 261.415,198.784 263.081,198.451 264.5,197.5 Z"/></g>
<g><path style="opacity:1" fill="#576499" d="M 111.5,194.5 C 109.509,219.478 108.843,244.811 109.5,270.5C 114.167,270.5 118.833,270.5 123.5,270.5C 127.833,270.5 132.167,270.5 136.5,270.5C 139.833,270.5 143.167,270.5 146.5,270.5C 152.167,270.5 157.833,270.5 163.5,270.5C 164.167,270.5 164.833,270.5 165.5,270.5C 146.674,271.497 127.674,271.83 108.5,271.5C 108.5,245.5 108.5,219.5 108.5,193.5C 109.791,193.263 110.791,193.596 111.5,194.5 Z"/></g>
</svg>
